<svg xmlns="http://www.w3.org/2000/svg" width="75" viewBox="0 0 75 100" height="100" version="1.2"><defs><clipPath id="prefix__a"><path d="M7 4.645h60v90H7zm0 0"/></clipPath></defs><g clip-path="url(#prefix__a)"><path d="M59.207 16.652c-1.16 1.336-9.234 12.43-10.148 11.625-.809-.738-.844-2.53-.176-4.32.281-.738 2.703-5.023 1.965-5.375-3.618 3.266-6.672 7.305-9.13 11.52-2.034 3.476-4.878 8.113-5.195 12.253 7.266-.632 15.063 2.04 19.524 9.34 1.754 2.883 5.195 8.817.176 16.016-3.723 5.3-11.73 7.441-16.645 3.652-3.125-2.39-5.164-6.254-6.496-10.254-.703-2.074-.914-4.636-1.23-6.777a122.3 122.3 0 01-.493-3.512c-.07-.035-2.457.774-2.597.809-6.426 2.844-11.168 9.094-14.047 15.168-2.703 5.758-4.04 11.691-2.317 18.086.422 1.578 2.95 9.762 1.473 9.234-3.93-1.37-5.512-6.742-6.074-10.605-1.367-9.094.14-17.313 4.988-25.246 2.281-3.723 4.985-6.778 8.39-9.485 1.723-1.367 3.618-2.527 5.622-3.511.523-.247 4.668-1.579 4.703-1.86 1.652-8.219 6.848-18.504 10.113-22.437.668-.809 3.934-4.18 3.723-4.426-.457-.598-7.445-.176-8.184-1.719-1.402-3.058 10.993-6.113 13.102-6.742 4.914-1.512 5.969-1.3 10.953-2.496 2.984-.735 4.285-.945 5.164-.457 1.332.703-5.797 9.972-7.164 11.52zM34.766 49.695c-.352 0 .246 6.04.386 6.813.563 2.808 1.965 5.547 3.442 7.972 2.527 4.176 9.656 6.813 13.765 2.106 2.176-2.492 2.809-5.195 2.493-8.461-.387-3.898-2.668-6.848-5.899-8.57-4.672-2.457-9.34-1.86-14.187.14.035 0 .28-.14 0 0zm0 0" fill="#6a9580"/></g></svg>