<svg xmlns="http://www.w3.org/2000/svg" xmlns:xlink="http://www.w3.org/1999/xlink" width="300" zoomAndPan="magnify" viewBox="0 0 300 350.49997" height="350" preserveAspectRatio="xMidYMid meet" version="1.2"><defs><clipPath id="73b68d6e37"><path d="M 0.199219 0 L 809.800781 0 L 809.800781 1012 L 0.199219 1012 Z M 0.199219 0 "/></clipPath><clipPath id="91d6774a49"><path d="M 130 0 L 301.550781 0 L 301.550781 171 L 130 171 Z M 130 0 "/></clipPath><clipPath id="5d69cf5345"><path d="M 0.199219 89 L 219 89 L 219 308.847656 L 0.199219 308.847656 Z M 0.199219 89 "/></clipPath></defs><g id="8d168479e0"><g clip-rule="nonzero" clip-path="url(#73b68d6e37)"><path style=" stroke:none;fill-rule:nonzero;fill:#6a9580;fill-opacity:1;" d="M 301.300781 85.207031 C 301.300781 86.601562 301.269531 87.996094 301.199219 89.390625 C 301.128906 90.78125 301.027344 92.171875 300.890625 93.5625 C 300.753906 94.949219 300.585938 96.332031 300.378906 97.710938 C 300.175781 99.089844 299.9375 100.464844 299.664062 101.832031 C 299.390625 103.199219 299.085938 104.558594 298.75 105.914062 C 298.410156 107.265625 298.039062 108.609375 297.632812 109.945312 C 297.226562 111.277344 296.789062 112.601562 296.320312 113.914062 C 295.851562 115.226562 295.347656 116.527344 294.816406 117.816406 C 294.28125 119.105469 293.71875 120.378906 293.121094 121.640625 C 292.523438 122.902344 291.898438 124.144531 291.242188 125.375 C 290.582031 126.605469 289.894531 127.820312 289.179688 129.015625 C 288.460938 130.210938 287.714844 131.390625 286.941406 132.546875 C 286.167969 133.707031 285.363281 134.847656 284.535156 135.96875 C 283.703125 137.085938 282.84375 138.1875 281.960938 139.265625 C 281.074219 140.34375 280.164062 141.398438 279.230469 142.433594 C 278.292969 143.464844 277.332031 144.476562 276.34375 145.460938 C 275.359375 146.445312 274.347656 147.40625 273.316406 148.34375 C 272.28125 149.28125 271.226562 150.191406 270.148438 151.078125 C 269.070312 151.960938 267.972656 152.820312 266.851562 153.648438 C 265.730469 154.480469 264.59375 155.28125 263.433594 156.058594 C 262.273438 156.832031 261.09375 157.578125 259.898438 158.296875 C 258.703125 159.011719 257.488281 159.699219 256.261719 160.355469 C 255.03125 161.015625 253.785156 161.640625 252.523438 162.238281 C 251.265625 162.832031 249.988281 163.398438 248.699219 163.933594 C 247.414062 164.464844 246.113281 164.96875 244.800781 165.4375 C 243.484375 165.90625 242.164062 166.34375 240.828125 166.75 C 239.492188 167.152344 238.148438 167.523438 236.796875 167.863281 C 235.445312 168.203125 234.085938 168.507812 232.714844 168.78125 C 231.347656 169.050781 229.976562 169.289062 228.597656 169.496094 C 227.214844 169.699219 225.832031 169.871094 224.445312 170.007812 C 223.058594 170.144531 221.667969 170.246094 220.273438 170.316406 C 218.882812 170.382812 217.488281 170.417969 216.09375 170.417969 C 214.699219 170.417969 213.304688 170.382812 211.910156 170.316406 C 210.519531 170.246094 209.128906 170.144531 207.742188 170.007812 C 206.351562 169.871094 204.96875 169.699219 203.589844 169.496094 C 202.210938 169.289062 200.835938 169.050781 199.46875 168.78125 C 198.101562 168.507812 196.742188 168.203125 195.390625 167.863281 C 194.035156 167.523438 192.691406 167.152344 191.359375 166.75 C 190.023438 166.34375 188.699219 165.90625 187.386719 165.4375 C 186.074219 164.96875 184.773438 164.464844 183.484375 163.933594 C 182.195312 163.398438 180.921875 162.832031 179.660156 162.238281 C 178.402344 161.640625 177.15625 161.015625 175.925781 160.355469 C 174.695312 159.699219 173.484375 159.011719 172.285156 158.296875 C 171.089844 157.578125 169.914062 156.832031 168.753906 156.058594 C 167.59375 155.28125 166.453125 154.480469 165.335938 153.648438 C 164.214844 152.820312 163.113281 151.960938 162.035156 151.078125 C 160.960938 150.191406 159.902344 149.28125 158.871094 148.34375 C 157.835938 147.40625 156.828125 146.445312 155.839844 145.460938 C 154.855469 144.476562 153.894531 143.464844 152.957031 142.433594 C 152.019531 141.398438 151.109375 140.34375 150.226562 139.265625 C 149.339844 138.1875 148.484375 137.085938 147.652344 135.96875 C 146.820312 134.847656 146.019531 133.707031 145.246094 132.546875 C 144.46875 131.390625 143.722656 130.210938 143.007812 129.015625 C 142.289062 127.820312 141.601562 126.605469 140.945312 125.375 C 140.289062 124.144531 139.660156 122.902344 139.066406 121.640625 C 138.46875 120.378906 137.902344 119.105469 137.371094 117.816406 C 136.835938 116.527344 136.335938 115.226562 135.863281 113.914062 C 135.394531 112.601562 134.957031 111.277344 134.554688 109.945312 C 134.148438 108.609375 133.777344 107.265625 133.4375 105.914062 C 133.097656 104.558594 132.792969 103.199219 132.519531 101.832031 C 132.25 100.464844 132.011719 99.089844 131.804688 97.710938 C 131.601562 96.332031 131.429688 94.949219 131.292969 93.5625 C 131.15625 92.171875 131.054688 90.78125 130.988281 89.390625 C 130.917969 87.996094 130.882812 86.601562 130.882812 85.207031 C 130.882812 83.8125 130.917969 82.421875 130.988281 81.027344 C 131.054688 79.636719 131.15625 78.246094 131.292969 76.855469 C 131.429688 75.46875 131.601562 74.085938 131.804688 72.707031 C 132.011719 71.328125 132.25 69.953125 132.519531 68.585938 C 132.792969 67.21875 133.097656 65.859375 133.4375 64.503906 C 133.777344 63.152344 134.148438 61.808594 134.554688 60.472656 C 134.957031 59.140625 135.394531 57.816406 135.863281 56.503906 C 136.335938 55.191406 136.835938 53.890625 137.371094 52.601562 C 137.902344 51.3125 138.46875 50.039062 139.066406 48.777344 C 139.660156 47.515625 140.289062 46.273438 140.945312 45.042969 C 141.601562 43.8125 142.289062 42.597656 143.007812 41.402344 C 143.722656 40.207031 144.46875 39.027344 145.246094 37.871094 C 146.019531 36.710938 146.820312 35.570312 147.652344 34.449219 C 148.484375 33.328125 149.339844 32.230469 150.226562 31.152344 C 151.109375 30.074219 152.019531 29.019531 152.957031 27.984375 C 153.894531 26.953125 154.855469 25.941406 155.839844 24.957031 C 156.828125 23.972656 157.835938 23.007812 158.871094 22.074219 C 159.902344 21.136719 160.960938 20.226562 162.035156 19.339844 C 163.113281 18.457031 164.214844 17.597656 165.335938 16.769531 C 166.453125 15.9375 167.59375 15.136719 168.753906 14.359375 C 169.914062 13.585938 171.089844 12.839844 172.285156 12.121094 C 173.484375 11.40625 174.695312 10.71875 175.925781 10.0625 C 177.15625 9.402344 178.402344 8.777344 179.660156 8.179688 C 180.921875 7.585938 182.195312 7.019531 183.484375 6.484375 C 184.773438 5.953125 186.074219 5.449219 187.386719 4.980469 C 188.699219 4.511719 190.023438 4.074219 191.359375 3.667969 C 192.691406 3.265625 194.035156 2.890625 195.390625 2.554688 C 196.742188 2.214844 198.101562 1.910156 199.46875 1.636719 C 200.835938 1.363281 202.210938 1.125 203.589844 0.921875 C 204.96875 0.71875 206.351562 0.546875 207.742188 0.410156 C 209.128906 0.273438 210.519531 0.171875 211.910156 0.101562 C 213.304688 0.0351562 214.699219 0 216.09375 0 C 217.488281 0 218.882812 0.0351562 220.273438 0.101562 C 221.667969 0.171875 223.058594 0.273438 224.445312 0.410156 C 225.832031 0.546875 227.214844 0.71875 228.597656 0.921875 C 229.976562 1.125 231.347656 1.363281 232.714844 1.636719 C 234.085938 1.910156 235.445312 2.214844 236.796875 2.554688 C 238.148438 2.890625 239.492188 3.265625 240.828125 3.667969 C 242.164062 4.074219 243.484375 4.511719 244.800781 4.980469 C 246.113281 5.449219 247.414062 5.953125 248.699219 6.484375 C 249.988281 7.019531 251.265625 7.585938 252.523438 8.179688 C 253.785156 8.777344 255.03125 9.402344 256.261719 10.0625 C 257.488281 10.71875 258.703125 11.40625 259.898438 12.121094 C 261.09375 12.839844 262.273438 13.585938 263.433594 14.359375 C 264.59375 15.136719 265.730469 15.9375 266.851562 16.769531 C 267.972656 17.597656 269.070312 18.457031 270.148438 19.339844 C 271.226562 20.226562 272.28125 21.136719 273.316406 22.074219 C 274.347656 23.007812 275.359375 23.972656 276.34375 24.957031 C 277.332031 25.941406 278.292969 26.953125 279.230469 27.984375 C 280.164062 29.019531 281.074219 30.074219 281.960938 31.152344 C 282.84375 32.230469 283.703125 33.328125 284.535156 34.449219 C 285.363281 35.570312 286.167969 36.710938 286.941406 37.871094 C 287.714844 39.027344 288.460938 40.207031 289.179688 41.402344 C 289.894531 42.597656 290.582031 43.8125 291.242188 45.042969 C 291.898438 46.273438 292.523438 47.515625 293.121094 48.777344 C 293.71875 50.039062 294.28125 51.3125 294.816406 52.601562 C 295.347656 53.890625 295.851562 55.191406 296.320312 56.503906 C 296.789062 57.816406 297.226562 59.140625 297.632812 60.472656 C 298.039062 61.808594 298.410156 63.152344 298.75 64.503906 C 299.085938 65.859375 299.390625 67.21875 299.664062 68.585938 C 299.9375 69.953125 300.175781 71.328125 300.378906 72.707031 C 300.585938 74.085938 300.753906 75.46875 300.890625 76.855469 C 301.027344 78.246094 301.128906 79.636719 301.199219 81.027344 C 301.269531 82.421875 301.300781 83.8125 301.300781 85.207031 Z M 301.300781 85.207031 "/></g><g clip-rule="nonzero" clip-path="url(#5d69cf5345)"><path style=" stroke:none;fill-rule:nonzero;fill:#ffffff;fill-opacity:1;" d="M 109.582031 308.472656 C 49.28125 308.472656 0.203125 259.394531 0.203125 199.09375 C 0.203125 138.792969 49.28125 89.714844 109.582031 89.714844 C 169.882812 89.714844 218.960938 138.792969 218.960938 199.09375 C 218.960938 259.394531 169.882812 308.472656 109.582031 308.472656 Z M 109.582031 110.199219 C 60.585938 110.199219 20.6875 150.097656 20.6875 199.09375 C 20.6875 248.089844 60.585938 287.988281 109.582031 287.988281 C 158.578125 287.988281 198.476562 248.089844 198.476562 199.09375 C 198.476562 150.097656 158.578125 110.199219 109.582031 110.199219 Z M 109.582031 110.199219 "/></g></g></svg>